<svg width="1200" height="360" viewBox="0 0 1200 360" fill="none" xmlns="http://www.w3.org/2000/svg">
<rect width="1200" height="360" fill="#202124"/>
<path d="M150.307 91.408H145.219V86.992H167.683V91.408H159.043L168.931 121.168L176.515 145.744H176.899L184.675 121.072L194.083 91.408H185.443V86.992H204.931V91.408H199.843L179.203 154H170.947L150.307 91.408ZM220.918 93.04C219.254 93.04 217.974 92.56 217.078 91.6C216.246 90.576 215.83 89.36 215.83 87.952V87.472C215.83 86.064 216.246 84.88 217.078 83.92C217.974 82.896 219.254 82.384 220.918 82.384C222.582 82.384 223.862 82.896 224.758 83.92C225.654 84.88 226.102 86.064 226.102 87.472V87.952C226.102 89.36 225.654 90.576 224.758 91.6C223.862 92.56 222.582 93.04 220.918 93.04ZM209.878 149.584H216.982V110.704L209.878 109.456V106.192L224.854 103.312V149.584H231.958V154H209.878V149.584ZM259.551 155.152C256.543 155.152 253.919 154.544 251.679 153.328C249.439 152.048 247.967 150.64 247.263 149.104H246.879V154H241.119V139.12H246.879V141.136C246.879 143.888 247.743 146.128 249.471 147.856C251.199 149.584 254.047 150.448 258.015 150.448C261.663 150.448 264.479 149.808 266.463 148.528C268.511 147.184 269.535 145.072 269.535 142.192C269.535 137.712 266.815 134.864 261.375 133.648L255.615 132.4C250.879 131.376 247.295 129.648 244.863 127.216C242.495 124.784 241.311 121.456 241.311 117.232C241.311 112.88 242.815 109.488 245.823 107.056C248.831 104.56 252.863 103.312 257.919 103.312C260.991 103.312 263.487 103.792 265.407 104.752C267.391 105.712 268.703 106.96 269.343 108.496H269.727V104.464H275.487V119.344H269.727V115.696C269.727 110.576 266.143 108.016 258.975 108.016C255.711 108.016 253.151 108.656 251.295 109.936C249.503 111.152 248.607 113.104 248.607 115.792C248.607 118.032 249.343 119.92 250.815 121.456C252.287 122.928 254.303 123.952 256.863 124.528L262.239 125.68C267.167 126.704 270.847 128.4 273.279 130.768C275.775 133.136 277.023 136.432 277.023 140.656C277.023 142.704 276.607 144.624 275.775 146.416C275.007 148.144 273.855 149.68 272.319 151.024C270.847 152.304 269.023 153.296 266.847 154C264.735 154.768 262.303 155.152 259.551 155.152ZM298.074 93.04C296.41 93.04 295.13 92.56 294.234 91.6C293.402 90.576 292.986 89.36 292.986 87.952V87.472C292.986 86.064 293.402 84.88 294.234 83.92C295.13 82.896 296.41 82.384 298.074 82.384C299.738 82.384 301.018 82.896 301.914 83.92C302.81 84.88 303.258 86.064 303.258 87.472V87.952C303.258 89.36 302.81 90.576 301.914 91.6C301.018 92.56 299.738 93.04 298.074 93.04ZM287.034 149.584H294.138V110.704L287.034 109.456V106.192L302.01 103.312V149.584H309.114V154H287.034V149.584ZM344.868 155.152C340.9 155.152 337.7 154.32 335.268 152.656C332.836 150.992 331.076 148.976 329.988 146.608H329.604L325.188 154H322.02V88.432L314.916 87.184V83.824L329.892 81.04V111.952H330.276C331.364 109.584 333.092 107.568 335.46 105.904C337.828 104.176 340.964 103.312 344.868 103.312C351.012 103.312 355.908 105.552 359.556 110.032C363.268 114.448 365.124 120.848 365.124 129.232C365.124 137.616 363.268 144.048 359.556 148.528C355.908 152.944 351.012 155.152 344.868 155.152ZM342.564 149.68C346.98 149.68 350.404 148.208 352.836 145.264C355.332 142.256 356.58 138.256 356.58 133.264V125.2C356.58 120.208 355.332 116.24 352.836 113.296C350.404 110.288 346.98 108.784 342.564 108.784C341.028 108.784 339.492 109.008 337.956 109.456C336.42 109.904 335.044 110.544 333.828 111.376C332.676 112.208 331.716 113.264 330.948 114.544C330.244 115.76 329.892 117.136 329.892 118.672V139.792C329.892 141.328 330.244 142.736 330.948 144.016C331.716 145.232 332.676 146.256 333.828 147.088C335.044 147.92 336.42 148.56 337.956 149.008C339.492 149.456 341.028 149.68 342.564 149.68ZM385.731 93.04C384.067 93.04 382.787 92.56 381.891 91.6C381.059 90.576 380.643 89.36 380.643 87.952V87.472C380.643 86.064 381.059 84.88 381.891 83.92C382.787 82.896 384.067 82.384 385.731 82.384C387.395 82.384 388.675 82.896 389.571 83.92C390.467 84.88 390.915 86.064 390.915 87.472V87.952C390.915 89.36 390.467 90.576 389.571 91.6C388.675 92.56 387.395 93.04 385.731 93.04ZM374.691 149.584H381.795V110.704L374.691 109.456V106.192L389.667 103.312V149.584H396.771V154H374.691V149.584ZM403.532 149.584H410.636V88.432L403.532 87.184V83.824L418.508 81.04V149.584H425.612V154H403.532V149.584ZM444.793 93.04C443.129 93.04 441.849 92.56 440.953 91.6C440.121 90.576 439.705 89.36 439.705 87.952V87.472C439.705 86.064 440.121 84.88 440.953 83.92C441.849 82.896 443.129 82.384 444.793 82.384C446.457 82.384 447.737 82.896 448.633 83.92C449.529 84.88 449.977 86.064 449.977 87.472V87.952C449.977 89.36 449.529 90.576 448.633 91.6C447.737 92.56 446.457 93.04 444.793 93.04ZM433.753 149.584H440.857V110.704L433.753 109.456V106.192L448.729 103.312V149.584H455.833V154H433.753V149.584ZM478.626 154.576C475.234 154.576 472.898 153.904 471.618 152.56C470.338 151.152 469.698 148.784 469.698 145.456V109.168H463.362V104.464H464.226C465.57 104.464 466.626 104.368 467.394 104.176C468.226 103.984 468.866 103.728 469.314 103.408C469.826 103.024 470.178 102.576 470.37 102.064C470.626 101.488 470.85 100.848 471.042 100.144L473.25 91.6H477.57V104.464H490.338V109.168H477.57V149.296H490.338V152.464C489.762 152.784 489.026 153.072 488.13 153.328C487.298 153.584 486.338 153.808 485.25 154C484.226 154.192 483.138 154.32 481.986 154.384C480.834 154.512 479.714 154.576 478.626 154.576ZM504.886 174.352C501.622 174.352 499.254 173.648 497.782 172.24C496.31 170.896 495.574 169.104 495.574 166.864C495.574 165.2 496.022 163.856 496.918 162.832C497.814 161.808 499.094 161.296 500.758 161.296C502.23 161.296 503.35 161.712 504.118 162.544C504.95 163.44 505.366 164.624 505.366 166.096C505.366 167.184 505.078 168.048 504.502 168.688C503.99 169.392 503.414 169.84 502.774 170.032V170.32C503.478 170.576 504.31 170.704 505.27 170.704C506.934 170.704 508.566 169.968 510.166 168.496C511.766 167.088 513.206 164.752 514.486 161.488L516.502 156.016L498.262 108.88H493.27V104.464H513.814V108.88H506.902L520.246 145.168H520.63L533.59 108.88H526.678V104.464H544.15V108.88H539.158L518.614 162.256C517.27 165.776 515.446 168.656 513.142 170.896C510.902 173.2 508.15 174.352 504.886 174.352ZM571.856 108.88H566.864V104.464H587.408V108.88H580.496L593.84 145.168H594.224L607.184 108.88H600.272V104.464H617.744V108.88H612.752L595.376 154H589.328L571.856 108.88ZM642.145 155.152C639.137 155.152 636.513 154.544 634.273 153.328C632.033 152.048 630.561 150.64 629.857 149.104H629.473V154H623.713V139.12H629.473V141.136C629.473 143.888 630.337 146.128 632.065 147.856C633.793 149.584 636.641 150.448 640.609 150.448C644.257 150.448 647.073 149.808 649.057 148.528C651.105 147.184 652.129 145.072 652.129 142.192C652.129 137.712 649.409 134.864 643.969 133.648L638.209 132.4C633.473 131.376 629.889 129.648 627.457 127.216C625.089 124.784 623.905 121.456 623.905 117.232C623.905 112.88 625.409 109.488 628.417 107.056C631.425 104.56 635.457 103.312 640.513 103.312C643.585 103.312 646.081 103.792 648.001 104.752C649.985 105.712 651.297 106.96 651.937 108.496H652.321V104.464H658.081V119.344H652.321V115.696C652.321 110.576 648.737 108.016 641.569 108.016C638.305 108.016 635.745 108.656 633.889 109.936C632.097 111.152 631.201 113.104 631.201 115.792C631.201 118.032 631.937 119.92 633.409 121.456C634.881 122.928 636.897 123.952 639.457 124.528L644.833 125.68C649.761 126.704 653.441 128.4 655.873 130.768C658.369 133.136 659.617 136.432 659.617 140.656C659.617 142.704 659.201 144.624 658.369 146.416C657.601 148.144 656.449 149.68 654.913 151.024C653.441 152.304 651.617 153.296 649.441 154C647.329 154.768 644.897 155.152 642.145 155.152ZM675.817 155.152C673.961 155.152 672.489 154.608 671.401 153.52C670.377 152.368 669.865 150.992 669.865 149.392V148.816C669.865 147.216 670.377 145.872 671.401 144.784C672.489 143.632 673.961 143.056 675.817 143.056C677.673 143.056 679.113 143.632 680.137 144.784C681.225 145.872 681.769 147.216 681.769 148.816V149.392C681.769 150.992 681.225 152.368 680.137 153.52C679.113 154.608 677.673 155.152 675.817 155.152ZM745.321 150.064C748.585 150.064 751.465 149.488 753.961 148.336C756.521 147.12 758.665 145.456 760.393 143.344C762.121 141.168 763.433 138.608 764.329 135.664C765.225 132.72 765.673 129.488 765.673 125.968V115.024C765.673 111.504 765.225 108.272 764.329 105.328C763.433 102.384 762.121 99.856 760.393 97.744C758.665 95.568 756.521 93.904 753.961 92.752C751.465 91.536 748.585 90.928 745.321 90.928C742.057 90.928 739.145 91.536 736.585 92.752C734.089 93.904 731.977 95.568 730.249 97.744C728.521 99.856 727.209 102.384 726.313 105.328C725.417 108.272 724.969 111.504 724.969 115.024V125.968C724.969 129.488 725.417 132.72 726.313 135.664C727.209 138.608 728.521 141.168 730.249 143.344C731.977 145.456 734.089 147.12 736.585 148.336C739.145 149.488 742.057 150.064 745.321 150.064ZM745.321 155.152C740.905 155.152 736.873 154.352 733.225 152.752C729.577 151.152 726.441 148.848 723.817 145.84C721.257 142.832 719.273 139.216 717.865 134.992C716.457 130.704 715.753 125.872 715.753 120.496C715.753 115.12 716.457 110.32 717.865 106.096C719.273 101.808 721.257 98.16 723.817 95.152C726.441 92.144 729.577 89.84 733.225 88.24C736.873 86.64 740.905 85.84 745.321 85.84C749.737 85.84 753.769 86.64 757.417 88.24C761.065 89.84 764.169 92.144 766.729 95.152C769.353 98.16 771.369 101.808 772.777 106.096C774.185 110.32 774.889 115.12 774.889 120.496C774.889 125.872 774.185 130.704 772.777 134.992C771.369 139.216 769.353 142.832 766.729 145.84C764.169 148.848 761.065 151.152 757.417 152.752C753.769 154.352 749.737 155.152 745.321 155.152ZM783.512 168.784H790.616V110.704L783.512 109.456V106.192L798.488 103.312V111.952H798.872C799.96 109.584 801.688 107.568 804.056 105.904C806.424 104.176 809.56 103.312 813.464 103.312C819.608 103.312 824.504 105.552 828.152 110.032C831.864 114.448 833.72 120.848 833.72 129.232C833.72 137.616 831.864 144.048 828.152 148.528C824.504 152.944 819.608 155.152 813.464 155.152C809.624 155.152 806.488 154.32 804.056 152.656C801.688 150.992 799.96 148.976 798.872 146.608H798.488V168.784H807.512V173.2H783.512V168.784ZM811.16 149.68C815.576 149.68 819 148.208 821.432 145.264C823.928 142.256 825.176 138.256 825.176 133.264V125.2C825.176 120.208 823.928 116.24 821.432 113.296C819 110.288 815.576 108.784 811.16 108.784C809.624 108.784 808.088 109.008 806.552 109.456C805.016 109.904 803.64 110.544 802.424 111.376C801.272 112.208 800.312 113.264 799.544 114.544C798.84 115.76 798.488 117.136 798.488 118.672V139.792C798.488 141.328 798.84 142.736 799.544 144.016C800.312 145.232 801.272 146.256 802.424 147.088C803.64 147.92 805.016 148.56 806.552 149.008C808.088 149.456 809.624 149.68 811.16 149.68ZM858.972 155.152C854.364 155.152 850.748 153.968 848.124 151.6C845.564 149.168 844.284 145.872 844.284 141.712C844.284 139.344 844.668 137.264 845.436 135.472C846.204 133.616 847.452 132.08 849.18 130.864C850.972 129.648 853.276 128.72 856.092 128.08C858.908 127.44 862.332 127.12 866.364 127.12H873.468V119.824C873.468 115.92 872.508 112.944 870.588 110.896C868.732 108.784 865.916 107.728 862.14 107.728C860.476 107.728 858.94 107.888 857.532 108.208C856.124 108.464 854.972 108.848 854.076 109.36V109.552C854.78 109.936 855.452 110.512 856.092 111.28C856.796 112.048 857.148 113.136 857.148 114.544C857.148 116.208 856.668 117.52 855.708 118.48C854.748 119.376 853.468 119.824 851.868 119.824C850.332 119.824 849.052 119.376 848.028 118.48C847.068 117.52 846.588 116.112 846.588 114.256C846.588 112.848 847.004 111.504 847.836 110.224C848.668 108.88 849.852 107.696 851.388 106.672C852.924 105.648 854.812 104.848 857.052 104.272C859.356 103.632 861.948 103.312 864.828 103.312C870.012 103.312 874.044 104.656 876.924 107.344C879.868 110.032 881.34 113.808 881.34 118.672V149.872H888.54V153.232C887.836 153.744 886.876 154.192 885.66 154.576C884.508 154.96 883.196 155.152 881.724 155.152C879.228 155.152 877.308 154.448 875.964 153.04C874.62 151.632 873.948 149.744 873.948 147.376V146.704H873.468C873.02 147.792 872.412 148.848 871.644 149.872C870.94 150.896 870.012 151.792 868.86 152.56C867.708 153.328 866.3 153.936 864.636 154.384C863.036 154.896 861.148 155.152 858.972 155.152ZM862.332 149.872C865.404 149.872 868.028 149.104 870.204 147.568C872.38 145.968 873.468 143.536 873.468 140.272V130.96H867.228C864.476 130.96 862.172 131.184 860.316 131.632C858.46 132.016 856.988 132.624 855.9 133.456C854.812 134.224 854.012 135.184 853.5 136.336C853.052 137.488 852.828 138.832 852.828 140.368V142.384C852.828 144.816 853.66 146.672 855.324 147.952C856.988 149.232 859.324 149.872 862.332 149.872ZM918.771 155.152C915.187 155.152 911.987 154.544 909.171 153.328C906.419 152.048 904.083 150.288 902.163 148.048C900.243 145.744 898.771 143.024 897.747 139.888C896.723 136.688 896.211 133.136 896.211 129.232C896.211 125.264 896.755 121.68 897.843 118.48C898.995 115.28 900.595 112.56 902.643 110.32C904.691 108.08 907.123 106.352 909.939 105.136C912.819 103.92 915.987 103.312 919.443 103.312C924.627 103.312 928.723 104.432 931.731 106.672C934.803 108.848 936.339 111.632 936.339 115.024C936.339 117.072 935.795 118.672 934.707 119.824C933.683 120.976 932.243 121.552 930.387 121.552C928.403 121.552 926.931 120.976 925.971 119.824C925.011 118.672 924.531 117.296 924.531 115.696C924.531 114.288 924.883 113.072 925.587 112.048C926.291 111.024 927.283 110.224 928.563 109.648V109.36C927.731 108.848 926.643 108.464 925.299 108.208C924.019 107.952 922.355 107.824 920.307 107.824C918.067 107.824 915.987 108.24 914.067 109.072C912.211 109.904 910.611 111.088 909.267 112.624C907.923 114.096 906.867 115.856 906.099 117.904C905.331 119.888 904.947 122.064 904.947 124.432V131.536C904.947 134.16 905.299 136.56 906.003 138.736C906.707 140.848 907.699 142.672 908.979 144.208C910.323 145.744 911.891 146.928 913.683 147.76C915.539 148.592 917.619 149.008 919.923 149.008C923.827 149.008 926.899 148.208 929.139 146.608C931.379 144.944 933.171 142.8 934.515 140.176L937.587 142.192C937.011 143.856 936.179 145.488 935.091 147.088C934.003 148.624 932.691 150 931.155 151.216C929.619 152.368 927.795 153.296 925.683 154C923.635 154.768 921.331 155.152 918.771 155.152ZM957.231 93.04C955.567 93.04 954.287 92.56 953.391 91.6C952.559 90.576 952.143 89.36 952.143 87.952V87.472C952.143 86.064 952.559 84.88 953.391 83.92C954.287 82.896 955.567 82.384 957.231 82.384C958.895 82.384 960.175 82.896 961.071 83.92C961.967 84.88 962.415 86.064 962.415 87.472V87.952C962.415 89.36 961.967 90.576 961.071 91.6C960.175 92.56 958.895 93.04 957.231 93.04ZM946.191 149.584H953.295V110.704L946.191 109.456V106.192L961.167 103.312V149.584H968.271V154H946.191V149.584ZM991.064 154.576C987.672 154.576 985.336 153.904 984.056 152.56C982.776 151.152 982.136 148.784 982.136 145.456V109.168H975.8V104.464H976.664C978.008 104.464 979.064 104.368 979.832 104.176C980.664 103.984 981.304 103.728 981.752 103.408C982.264 103.024 982.616 102.576 982.808 102.064C983.064 101.488 983.288 100.848 983.48 100.144L985.688 91.6H990.008V104.464H1002.78V109.168H990.008V149.296H1002.78V152.464C1002.2 152.784 1001.46 153.072 1000.57 153.328C999.736 153.584 998.776 153.808 997.688 154C996.664 154.192 995.576 154.32 994.424 154.384C993.272 154.512 992.152 154.576 991.064 154.576ZM1017.32 174.352C1014.06 174.352 1011.69 173.648 1010.22 172.24C1008.75 170.896 1008.01 169.104 1008.01 166.864C1008.01 165.2 1008.46 163.856 1009.36 162.832C1010.25 161.808 1011.53 161.296 1013.2 161.296C1014.67 161.296 1015.79 161.712 1016.56 162.544C1017.39 163.44 1017.8 164.624 1017.8 166.096C1017.8 167.184 1017.52 168.048 1016.94 168.688C1016.43 169.392 1015.85 169.84 1015.21 170.032V170.32C1015.92 170.576 1016.75 170.704 1017.71 170.704C1019.37 170.704 1021 169.968 1022.6 168.496C1024.2 167.088 1025.64 164.752 1026.92 161.488L1028.94 156.016L1010.7 108.88H1005.71V104.464H1026.25V108.88H1019.34L1032.68 145.168H1033.07L1046.03 108.88H1039.12V104.464H1056.59V108.88H1051.6L1031.05 162.256C1029.71 165.776 1027.88 168.656 1025.58 170.896C1023.34 173.2 1020.59 174.352 1017.32 174.352ZM365.372 233.88H360.38V229.464H380.924V233.88H374.012L387.356 270.168H387.74L400.7 233.88H393.788V229.464H411.26V233.88H406.268L388.892 279H382.844L365.372 233.88ZM435.661 280.152C432.653 280.152 430.029 279.544 427.789 278.328C425.549 277.048 424.077 275.64 423.373 274.104H422.989V279H417.229V264.12H422.989V266.136C422.989 268.888 423.853 271.128 425.581 272.856C427.309 274.584 430.157 275.448 434.125 275.448C437.773 275.448 440.589 274.808 442.573 273.528C444.621 272.184 445.645 270.072 445.645 267.192C445.645 262.712 442.925 259.864 437.485 258.648L431.725 257.4C426.989 256.376 423.405 254.648 420.973 252.216C418.605 249.784 417.421 246.456 417.421 242.232C417.421 237.88 418.925 234.488 421.933 232.056C424.941 229.56 428.973 228.312 434.029 228.312C437.101 228.312 439.597 228.792 441.517 229.752C443.501 230.712 444.813 231.96 445.453 233.496H445.837V229.464H451.597V244.344H445.837V240.696C445.837 235.576 442.253 233.016 435.085 233.016C431.821 233.016 429.261 233.656 427.405 234.936C425.613 236.152 424.717 238.104 424.717 240.792C424.717 243.032 425.453 244.92 426.925 246.456C428.397 247.928 430.413 248.952 432.973 249.528L438.349 250.68C443.277 251.704 446.957 253.4 449.389 255.768C451.885 258.136 453.133 261.432 453.133 265.656C453.133 267.704 452.717 269.624 451.885 271.416C451.117 273.144 449.965 274.68 448.429 276.024C446.957 277.304 445.133 278.296 442.957 279C440.845 279.768 438.413 280.152 435.661 280.152ZM469.333 280.152C467.477 280.152 466.005 279.608 464.917 278.52C463.893 277.368 463.381 275.992 463.381 274.392V273.816C463.381 272.216 463.893 270.872 464.917 269.784C466.005 268.632 467.477 268.056 469.333 268.056C471.189 268.056 472.629 268.632 473.653 269.784C474.741 270.872 475.285 272.216 475.285 273.816V274.392C475.285 275.992 474.741 277.368 473.653 278.52C472.629 279.608 471.189 280.152 469.333 280.152ZM509.749 274.584H516.949V216.408H509.749V211.992H537.781C542.197 211.992 546.229 212.696 549.877 214.104C553.525 215.448 556.629 217.528 559.189 220.344C561.813 223.096 563.829 226.584 565.237 230.808C566.709 234.968 567.445 239.864 567.445 245.496C567.445 251.128 566.709 256.056 565.237 260.28C563.829 264.44 561.813 267.928 559.189 270.744C556.629 273.496 553.525 275.576 549.877 276.984C546.229 278.328 542.197 279 537.781 279H509.749V274.584ZM525.205 274.296H536.917C540.181 274.296 543.125 273.752 545.749 272.664C548.437 271.512 550.677 269.944 552.469 267.96C554.325 265.912 555.733 263.48 556.693 260.664C557.717 257.848 558.229 254.712 558.229 251.256V239.736C558.229 236.28 557.717 233.144 556.693 230.328C555.733 227.512 554.325 225.112 552.469 223.128C550.677 221.08 548.437 219.512 545.749 218.424C543.125 217.272 540.181 216.696 536.917 216.696H525.205V274.296ZM588.09 218.04C586.426 218.04 585.146 217.56 584.25 216.6C583.418 215.576 583.002 214.36 583.002 212.952V212.472C583.002 211.064 583.418 209.88 584.25 208.92C585.146 207.896 586.426 207.384 588.09 207.384C589.754 207.384 591.034 207.896 591.93 208.92C592.826 209.88 593.274 211.064 593.274 212.472V212.952C593.274 214.36 592.826 215.576 591.93 216.6C591.034 217.56 589.754 218.04 588.09 218.04ZM577.05 274.584H584.154V235.704L577.05 234.456V231.192L592.026 228.312V274.584H599.13V279H577.05V274.584ZM626.723 280.152C623.715 280.152 621.091 279.544 618.851 278.328C616.611 277.048 615.139 275.64 614.435 274.104H614.051V279H608.291V264.12H614.051V266.136C614.051 268.888 614.915 271.128 616.643 272.856C618.371 274.584 621.219 275.448 625.187 275.448C628.835 275.448 631.651 274.808 633.635 273.528C635.683 272.184 636.707 270.072 636.707 267.192C636.707 262.712 633.987 259.864 628.547 258.648L622.787 257.4C618.051 256.376 614.467 254.648 612.035 252.216C609.667 249.784 608.483 246.456 608.483 242.232C608.483 237.88 609.987 234.488 612.995 232.056C616.003 229.56 620.035 228.312 625.091 228.312C628.163 228.312 630.659 228.792 632.579 229.752C634.563 230.712 635.875 231.96 636.515 233.496H636.899V229.464H642.659V244.344H636.899V240.696C636.899 235.576 633.315 233.016 626.147 233.016C622.883 233.016 620.323 233.656 618.467 234.936C616.675 236.152 615.779 238.104 615.779 240.792C615.779 243.032 616.515 244.92 617.987 246.456C619.459 247.928 621.475 248.952 624.035 249.528L629.411 250.68C634.339 251.704 638.019 253.4 640.451 255.768C642.947 258.136 644.195 261.432 644.195 265.656C644.195 267.704 643.779 269.624 642.947 271.416C642.179 273.144 641.027 274.68 639.491 276.024C638.019 277.304 636.195 278.296 634.019 279C631.907 279.768 629.475 280.152 626.723 280.152ZM653.246 293.784H660.35V235.704L653.246 234.456V231.192L668.222 228.312V236.952H668.606C669.694 234.584 671.422 232.568 673.79 230.904C676.158 229.176 679.294 228.312 683.198 228.312C689.342 228.312 694.238 230.552 697.886 235.032C701.598 239.448 703.454 245.848 703.454 254.232C703.454 262.616 701.598 269.048 697.886 273.528C694.238 277.944 689.342 280.152 683.198 280.152C679.358 280.152 676.222 279.32 673.79 277.656C671.422 275.992 669.694 273.976 668.606 271.608H668.222V293.784H677.246V298.2H653.246V293.784ZM680.894 274.68C685.31 274.68 688.734 273.208 691.166 270.264C693.662 267.256 694.91 263.256 694.91 258.264V250.2C694.91 245.208 693.662 241.24 691.166 238.296C688.734 235.288 685.31 233.784 680.894 233.784C679.358 233.784 677.822 234.008 676.286 234.456C674.75 234.904 673.374 235.544 672.158 236.376C671.006 237.208 670.046 238.264 669.278 239.544C668.574 240.76 668.222 242.136 668.222 243.672V264.792C668.222 266.328 668.574 267.736 669.278 269.016C670.046 270.232 671.006 271.256 672.158 272.088C673.374 272.92 674.75 273.56 676.286 274.008C677.822 274.456 679.358 274.68 680.894 274.68ZM711.641 274.584H718.745V213.432L711.641 212.184V208.824L726.617 206.04V274.584H733.721V279H711.641V274.584ZM756.551 280.152C751.943 280.152 748.327 278.968 745.703 276.6C743.143 274.168 741.863 270.872 741.863 266.712C741.863 264.344 742.247 262.264 743.015 260.472C743.783 258.616 745.031 257.08 746.759 255.864C748.551 254.648 750.855 253.72 753.671 253.08C756.487 252.44 759.911 252.12 763.943 252.12H771.047V244.824C771.047 240.92 770.087 237.944 768.167 235.896C766.311 233.784 763.495 232.728 759.719 232.728C758.055 232.728 756.519 232.888 755.111 233.208C753.703 233.464 752.551 233.848 751.655 234.36V234.552C752.359 234.936 753.031 235.512 753.671 236.28C754.375 237.048 754.727 238.136 754.727 239.544C754.727 241.208 754.247 242.52 753.287 243.48C752.327 244.376 751.047 244.824 749.447 244.824C747.911 244.824 746.631 244.376 745.607 243.48C744.647 242.52 744.167 241.112 744.167 239.256C744.167 237.848 744.583 236.504 745.415 235.224C746.247 233.88 747.431 232.696 748.967 231.672C750.503 230.648 752.391 229.848 754.631 229.272C756.935 228.632 759.527 228.312 762.406 228.312C767.591 228.312 771.623 229.656 774.503 232.344C777.447 235.032 778.919 238.808 778.919 243.672V274.872H786.119V278.232C785.415 278.744 784.455 279.192 783.239 279.576C782.087 279.96 780.775 280.152 779.303 280.152C776.807 280.152 774.887 279.448 773.543 278.04C772.199 276.632 771.527 274.744 771.527 272.376V271.704H771.047C770.599 272.792 769.991 273.848 769.223 274.872C768.519 275.896 767.591 276.792 766.439 277.56C765.287 278.328 763.879 278.936 762.215 279.384C760.615 279.896 758.727 280.152 756.551 280.152ZM759.911 274.872C762.983 274.872 765.607 274.104 767.783 272.568C769.959 270.968 771.047 268.536 771.047 265.272V255.96H764.807C762.055 255.96 759.751 256.184 757.895 256.632C756.039 257.016 754.567 257.624 753.479 258.456C752.391 259.224 751.591 260.184 751.079 261.336C750.631 262.488 750.407 263.832 750.407 265.368V267.384C750.407 269.816 751.239 271.672 752.903 272.952C754.567 274.232 756.903 274.872 759.911 274.872ZM800.339 299.352C797.075 299.352 794.707 298.648 793.235 297.24C791.763 295.896 791.027 294.104 791.027 291.864C791.027 290.2 791.475 288.856 792.371 287.832C793.267 286.808 794.547 286.296 796.211 286.296C797.683 286.296 798.803 286.712 799.571 287.544C800.403 288.44 800.819 289.624 800.819 291.096C800.819 292.184 800.531 293.048 799.955 293.688C799.443 294.392 798.867 294.84 798.227 295.032V295.32C798.931 295.576 799.763 295.704 800.723 295.704C802.387 295.704 804.019 294.968 805.619 293.496C807.219 292.088 808.659 289.752 809.939 286.488L811.955 281.016L793.715 233.88H788.723V229.464H809.267V233.88H802.355L815.699 270.168H816.083L829.043 233.88H822.131V229.464H839.603V233.88H834.611L814.067 287.256C812.723 290.776 810.899 293.656 808.595 295.896C806.355 298.2 803.603 299.352 800.339 299.352Z" fill="#FDFEFF"/>
</svg>
